# xmcd
#
# Track frame offsets: 
#        150
#        14270
#        30712
#        43144
#        59249
#        76598
#        92055
#        108578
#        128493
#        144659
#        160273
#        177147
#        194891
#        213927
#        228563
#
# Disc length: 3275 seconds
#
# Revision: 0
# Processed by: cddbd v1.5.2PL0 Copyright (c) Steve Scherf et al.
# Submitted via: ExactAudioCopy v0.99pb5
#
DISCID=d10cc90f
DTITLE=Н. Басков - Тебе одной (переиздание)
DYEAR=2007
DGENRE=Pop
TTITLE0=Тебе одной
TTITLE1=Сердце
TTITLE2=Ветер вольный
TTITLE3=Как умирает любовь
TTITLE4=Позови меня
TTITLE5=Бриллианты
TTITLE6=Встретимся, обещай
TTITLE7=Сонет
TTITLE8=День рождения
TTITLE9=Вхожу в любовь(feat. Н.Кадышева)
TTITLE10=Снегом белым(feat.Т. Повалий)
TTITLE11=Ты далеко(feat.Т.Повалий)
TTITLE12=Отпусти меня(feat.Т.Повалий)
TTITLE13=Цветет малина(feat.С.Ротару)
TTITLE14=Все, что я люблю
EXTD=
EXTT0=
EXTT1=
EXTT2=
EXTT3=
EXTT4=
EXTT5=
EXTT6=
EXTT7=
EXTT8=
EXTT9=
EXTT10=
EXTT11=
EXTT12=
EXTT13=
EXTT14=
PLAYORDER=
